<?xml version="1.0" encoding="UTF-8"?>
<svg width="15px" height="15px" viewBox="0 0 15 15" version="1.1" xmlns="http://www.w3.org/2000/svg" xmlns:xlink="http://www.w3.org/1999/xlink">
    <title>Interface / Sign / Exclamation Alternate</title>
    <g id="2.0-Refinements" stroke="none" stroke-width="1" fill="none" fill-rule="evenodd">
        <g id="1.0-Tag-policy" transform="translate(-292.000000, -721.000000)" fill="#000E0E">
            <g id="Icon" transform="translate(292.000000, 721.000000)">
                <path d="M7.49999995,-5.00000992e-08 C11.6,-5.00000992e-08 15,3.39999997 15,7.49999995 C15,11.6 11.6,14.9999999 7.49999995,14.9999999 C3.39999997,14.9999999 -4.99999855e-08,11.6 -4.99999855e-08,7.49999995 C-4.99999855e-08,3.39999997 3.39999997,-5.00000992e-08 7.49999995,-5.00000992e-08 Z M7.49999996,0.999999956 C3.89999997,0.999999956 0.999999956,3.89999997 0.999999956,7.49999996 C0.999999956,11.1 3.89999997,14 7.49999996,14 C11.1,14 14,11.1 14,7.49999996 C14,3.89999997 11.1,0.999999956 7.49999996,0.999999956 Z M7.99999999,11 L7.99999999,12 L6.99999999,12 L6.99999999,11 L7.99999999,11 Z M7.99999999,2.99999997 L7.99999999,9.99999997 L6.99999999,9.99999997 L6.99999999,2.99999997 L7.99999999,2.99999997 Z"></path>
            </g>
        </g>
    </g>
</svg>