<svg version="1.0" xmlns="http://www.w3.org/2000/svg"
 width="15px" height="15px" viewBox="0 0 127.000000 117.000000"
 preserveAspectRatio="xMidYMid meet">
<g transform="translate(0.000000,117.000000) scale(0.100000,-0.100000)"
fill="green" stroke="none">
<path d="M1103 1051 c-72 -33 -154 -91 -147 -103 5 -7 3 -8 -5 -3 -15 9 -63
-33 -54 -48 3 -6 1 -7 -5 -3 -13 8 -133 -121 -220 -236 -36 -49 -68 -88 -71
-88 -3 0 -17 19 -31 42 -35 57 -90 92 -132 84 -31 -6 -68 -31 -68 -46 0 -4 12
-13 28 -19 33 -14 64 -64 121 -192 41 -92 67 -137 75 -128 2 2 43 68 90 147
152 253 230 356 392 516 104 104 107 113 27 77z"/>
<path d="M463 1025 c-217 -61 -363 -253 -363 -475 0 -225 150 -418 367 -475
113 -30 246 -14 355 41 67 34 168 135 202 202 74 146 74 317 1 462 -28 55 -34
58 -58 32 -15 -16 -13 -22 16 -82 30 -61 32 -70 32 -180 0 -111 -1 -118 -34
-185 -44 -90 -116 -162 -206 -206 -67 -33 -74 -34 -185 -34 -103 0 -121 3
-170 26 -30 14 -81 46 -112 72 -31 25 -59 43 -64 39 -4 -4 -4 -2 -1 4 4 7 -9
38 -28 69 -44 74 -59 142 -53 247 3 67 10 97 35 149 40 87 119 166 208 210 67
33 74 34 185 34 111 0 118 -1 184 -34 l68 -33 21 20 20 21 -34 20 c-102 63
-274 88 -386 56z"/>
</g>
</svg>